<svg xmlns="http://www.w3.org/2000/svg" version="1.1" xmlns:xlink="http://www.w3.org/1999/xlink" xmlns:svgjs="http://svgjs.dev/svgjs" width="1000" height="999" viewBox="0 0 1000 999"><g transform="matrix(1,0,0,1,-0.215743440233382,-0.21552769679306039)"><svg viewBox="0 0 343 343" data-background-color="#ff6060" preserveAspectRatio="xMidYMid meet" height="999" width="1000" xmlns="http://www.w3.org/2000/svg" xmlns:xlink="http://www.w3.org/1999/xlink"><g id="tight-bounds" transform="matrix(1,0,0,1,0.0740000000000407,0.07400000000001228)"><svg viewBox="0 0 342.85155851775386 342.85155851775386" height="342.85155851775386" width="342.85155851775386"><g><svg></svg></g><g><svg viewBox="0 0 342.85155851775386 342.85155851775386" height="342.85155851775386" width="342.85155851775386"><g><path d="M0 171.426c0-94.676 76.75-171.426 171.426-171.426 94.676 0 171.426 76.75 171.426 171.426 0 94.676-76.75 171.426-171.426 171.426-94.676 0-171.426-76.75-171.426-171.426zM171.426 338.493c92.269 0 167.068-74.799 167.067-167.067 0-92.269-74.799-167.068-167.067-167.068-92.269 0-167.068 74.799-167.068 167.068 0 92.269 74.799 167.068 167.068 167.067z" data-fill-palette-color="tertiary" fill="#f6e8e8" stroke="transparent"></path><ellipse rx="164.56874808852186" ry="164.56874808852186" cx="171.42577925887693" cy="171.42577925887693" fill="#f6e8e8" stroke="transparent" stroke-width="0" fill-opacity="1" data-fill-palette-color="tertiary"></ellipse></g><g transform="matrix(1,0,0,1,64.84655864529837,76.46375494644167)"><svg viewBox="0 0 213.1584412271571 189.92404862487052" height="189.92404862487052" width="213.1584412271571"><g><svg viewBox="0 0 213.1584412271571 189.92404862487052" height="189.92404862487052" width="213.1584412271571"><g><svg viewBox="0 0 213.1584412271571 189.92404862487052" height="189.92404862487052" width="213.1584412271571"><g transform="matrix(1,0,0,1,0,114.980517715081)"><svg viewBox="0 0 213.1584412271571 74.94353090978953" height="74.94353090978953" width="213.1584412271571"><g id="textblocktransform"><svg viewBox="0 0 213.1584412271571 74.94353090978953" height="74.94353090978953" width="213.1584412271571" id="textblock"><g><svg viewBox="0 0 213.1584412271571 48.32578490719885" height="48.32578490719885" width="213.1584412271571"><g transform="matrix(1,0,0,1,0,0)"><svg width="213.1584412271571" viewBox="3 -35.400001525878906 158.33999633789062 35.900001525878906" height="48.32578490719885" data-palette-color="#ff6060"><path d="M13 0L4 0 4-27.3 3-32.4 4-35.4 28.75-35.4 31.25-33.9 27.95-26.9 23.45-27.4 12.5-27.4 13-21.9 26.45-21.9 26.45-14.15 20.4-14.15 13-14.65 13-7.95 13.55-2.95 13 0ZM44.1 0L35.05 0 35.05-27.4 34.55-32.4 35.05-35.4 44.1-35.4 44.1 0ZM65.55 0.5L65.55 0.5Q57.84 0.5 53.97-3.03 50.09-6.55 50.09-14.35L50.09-14.35 50.09-27.35 50.14-32.4 50.09-35.4 59.2-35.4 59.2-15.35Q59.2-11.85 60.59-9.68 61.99-7.5 65.55-7.5L65.55-7.5Q69.09-7.5 70.57-9.53 72.05-11.55 72.05-15.35L72.05-15.35 72.05-35.4 81-35.4 81-14.35Q81-6.7 77.22-3.1 73.44 0.5 65.55 0.5ZM96.99 0L87.99 0 87.99-27.3 86.99-32.4 87.99-35.4 112.74-35.4 115.24-33.9 111.94-26.9 107.44-27.4 96.49-27.4 96.99-21.9 110.44-21.9 110.44-14.15 104.39-14.15 96.99-14.65 96.99-7.95 97.54-2.95 96.99 0ZM128.09 0L119.04 0 119.04-27.4 118.54-32.4 119.04-35.4 128.09-35.4 128.09 0ZM151.09 0L142.09 0 142.09-27.4 132.09-26.9 132.09-35.4 161.34-35.4 161.34-26.9 151.09-27.4 151.09-8 151.64-3 151.09 0Z" opacity="1" transform="matrix(1,0,0,1,0,0)" fill="#ff6060" class="undefined-text-0" data-fill-palette-color="quaternary" id="text-0"></path></svg></g></svg></g><g transform="matrix(1,0,0,1,0,59.73434290495073)"><svg viewBox="0 0 213.1584412271571 15.20918800483881" height="15.20918800483881" width="213.1584412271571"><g transform="matrix(1,0,0,1,0,0)"><svg width="213.1584412271571" viewBox="3 -35.900001525878906 510.1099853515625 36.400001525878906" height="15.20918800483881" data-palette-color="#ff6060"><path d="M14.9 0L4 0 4-27.35 3-32.35 4-35.4 14.9-35.4Q18.5-35.4 21.83-34.73 25.15-34.05 27.78-32.2 30.4-30.35 31.93-26.9 33.45-23.45 33.45-17.95L33.45-17.95Q33.45-12.45 31.9-8.93 30.35-5.4 27.7-3.45 25.05-1.5 21.73-0.75 18.4 0 14.9 0L14.9 0ZM11.1-28.9L11.1-6.5 16.4-6.5Q21.6-6.5 23.8-9.58 26-12.65 26-17.95L26-17.95Q26-23.25 23.78-26.08 21.55-28.9 16.4-28.9L16.4-28.9 11.1-28.9ZM63.55 0L39.65 0 38.65-3 39.65-8 39.65-35.4 62.35-35.4 64.85-33.9 62.05-28.4 57.05-28.9 46.55-28.9 46.55-21.15 60.05-21.15 60.05-14.9 55.15-14.9 46.55-15.4 46.55-6.5 62.55-6.5 66.5-3.2 63.55 0ZM79.8 0.5L79.8 0.5Q75.95 0.5 73.25-0.53 70.55-1.55 69.2-2.7L69.2-2.7 69.2-9.6Q70.95-8.6 73.87-7.5 76.8-6.4 80.34-6.4L80.34-6.4Q82.65-6.4 83.77-7.3 84.9-8.2 84.9-9.75L84.9-9.75Q84.9-11.15 84-12.05 83.09-12.95 81.3-13.7 79.5-14.45 76.7-15.45L76.7-15.45Q72.7-16.9 70.5-19.2 68.3-21.5 68.3-25.4L68.3-25.4Q68.3-28.15 69.52-30.55 70.75-32.95 73.37-34.43 76-35.9 80.09-35.9L80.09-35.9Q81.7-35.9 83.27-35.77 84.84-35.65 85.95-35.45L85.95-35.45 91.59-31.3 89.09-26.2 79.95-29.45Q78.15-29.45 76.97-28.58 75.8-27.7 75.8-26.1L75.8-26.1Q75.8-24.1 77.47-23.05 79.15-22 82.2-21L82.2-21Q88-19.1 90.34-16.43 92.7-13.75 92.7-10.15L92.7-10.15Q92.7-7.25 91.5-4.83 90.3-2.4 87.47-0.95 84.65 0.5 79.8 0.5ZM102.09 0L94.79 0 97.69-9.45 97.69-14.3 100.89-15.8 107.39-35.35 117.24-35.35 125.29-12.95 129.14-5.85 129.14 0 122.29 0 119.29-9 104.74-9 102.09 0ZM111.69-28.75L107.54-15.2 117.04-15.2 112.74-28.75 111.69-28.75ZM140.64 0L133.64 0 133.64-27.3 132.64-32.4 133.64-35.4 156.39-35.4 158.89-33.9 156.59-28.4 152.09-28.9 140.14-28.9 140.64-21.15 154.09-21.15 154.09-14.9 150.04-14.9 140.64-15.4 140.64-7.95 141.19-2.95 140.64 0ZM169.79 0L162.79 0 162.79-27.4 162.29-32.4 162.79-35.4 169.79-35.4 169.79 0ZM180.59 0L173.29 0 176.19-9.45 176.19-14.3 179.39-15.8 185.89-35.35 195.74-35.35 203.79-12.95 207.64-5.85 207.64 0 200.79 0 197.79-9 183.24-9 180.59 0ZM190.19-28.75L186.04-15.2 195.54-15.2 191.24-28.75 190.19-28.75ZM239.38 0L232.38 0 232.38-29 221.38-28.5 221.38-35.4 250.63-35.4 250.63-28.5 239.38-29 239.38-8 239.93-3 239.38 0ZM267.83 0.5L267.83 0.5Q262.68 0.5 259.75-1.2 256.83-2.9 255.6-6.23 254.38-9.55 254.38-14.35L254.38-14.35 254.38-27.35 254.43-32.4 254.38-35.4 261.48-35.4 261.48-13.85Q261.48-10.35 262.88-8.18 264.28-6 267.83-6L267.83-6Q271.38-6 272.85-8.03 274.33-10.05 274.33-13.85L274.33-13.85 274.33-35.4 281.28-35.4 281.28-14.35Q281.28-9.65 280.1-6.33 278.93-3 276-1.25 273.08 0.5 267.83 0.5ZM297.08 0.5L297.08 0.5Q293.23 0.5 290.53-0.53 287.83-1.55 286.48-2.7L286.48-2.7 286.48-9.6Q288.23-8.6 291.15-7.5 294.08-6.4 297.63-6.4L297.63-6.4Q299.93-6.4 301.05-7.3 302.18-8.2 302.18-9.75L302.18-9.75Q302.18-11.15 301.28-12.05 300.38-12.95 298.58-13.7 296.78-14.45 293.98-15.45L293.98-15.45Q289.98-16.9 287.78-19.2 285.58-21.5 285.58-25.4L285.58-25.4Q285.58-28.15 286.8-30.55 288.03-32.95 290.65-34.43 293.28-35.9 297.38-35.9L297.38-35.9Q298.98-35.9 300.55-35.77 302.13-35.65 303.23-35.45L303.23-35.45 308.88-31.3 306.38-26.2 297.23-29.45Q295.43-29.45 294.25-28.58 293.08-27.7 293.08-26.1L293.08-26.1Q293.08-24.1 294.75-23.05 296.43-22 299.48-21L299.48-21Q305.28-19.1 307.63-16.43 309.98-13.75 309.98-10.15L309.98-10.15Q309.98-7.25 308.78-4.83 307.58-2.4 304.75-0.95 301.93 0.5 297.08 0.5ZM350.52 0L327.57 0 326.57-3 327.57-8 327.57-35.4 334.57-35.4 334.57-14.85 334.07-6.5 335.07-6.5 346.02-7 349.57-7.5 352.97-3.2 350.52 0ZM363.87 0L356.87 0 356.87-27.4 356.37-32.4 356.87-35.4 363.87-35.4 363.87 0ZM378.37 0L370.87 0 370.87-27.35 369.87-32.35 370.92-35.35 378.47-35.35 389.27-14.35 390.27-14.35 399.37-35.35 407.32-35.35 407.82-32.35 407.32-27.55 407.32 0 400.27 0 400.42-4.25 400.42-22.2 399.87-22.2 398.17-18.05 392.37-5 386.37-5 378.37-22.2 377.87-22.2 377.87-18.15 378.37 0ZM421.31 0L414.31 0 414.31-27.4 413.81-32.4 414.31-35.4 421.31-35.4 421.31 0ZM443.56 0L436.56 0 436.56-29 425.56-28.5 425.56-35.4 454.81-35.4 454.81-28.5 443.56-29 443.56-8 444.11-3 443.56 0ZM483.96 0L460.06 0 459.06-3 460.06-8 460.06-35.4 482.76-35.4 485.26-33.9 482.46-28.4 477.46-28.9 466.96-28.9 466.96-21.15 480.46-21.15 480.46-14.9 475.56-14.9 466.96-15.4 466.96-6.5 482.96-6.5 486.91-3.2 483.96 0ZM500.21 0.5L500.21 0.5Q496.36 0.5 493.66-0.53 490.96-1.55 489.61-2.7L489.61-2.7 489.61-9.6Q491.36-8.6 494.28-7.5 497.21-6.4 500.76-6.4L500.76-6.4Q503.06-6.4 504.18-7.3 505.31-8.2 505.31-9.75L505.31-9.75Q505.31-11.15 504.41-12.05 503.51-12.95 501.71-13.7 499.91-14.45 497.11-15.45L497.11-15.45Q493.11-16.9 490.91-19.2 488.71-21.5 488.71-25.4L488.71-25.4Q488.71-28.15 489.93-30.55 491.16-32.95 493.78-34.43 496.41-35.9 500.51-35.9L500.51-35.9Q502.11-35.9 503.68-35.77 505.26-35.65 506.36-35.45L506.36-35.45 512.01-31.3 509.51-26.2 500.36-29.45Q498.56-29.45 497.38-28.58 496.21-27.7 496.21-26.1L496.21-26.1Q496.21-24.1 497.88-23.05 499.56-22 502.61-21L502.61-21Q508.41-19.1 510.76-16.43 513.11-13.75 513.11-10.15L513.11-10.15Q513.11-7.25 511.91-4.83 510.71-2.4 507.88-0.95 505.06 0.5 500.21 0.5Z" opacity="1" transform="matrix(1,0,0,1,0,0)" fill="#ff6060" class="undefined-text-1" data-fill-palette-color="quaternary" id="text-1"></path></svg></g></svg></g></svg></g></svg></g><g transform="matrix(1,0,0,1,53.14963570695474,0)"><svg viewBox="0 0 106.85916981324763 103.57195971732914" height="103.57195971732914" width="106.85916981324763"><g><svg xmlns="http://www.w3.org/2000/svg" xmlns:xlink="http://www.w3.org/1999/xlink" version="1.1" x="0" y="0" viewBox="0.11598801612854004 1.6504144668579102 99.7686767578125 96.6995849609375" enable-background="new 0 0 100 100" xml:space="preserve" height="103.57195971732914" width="106.85916981324763" class="icon-icon-0" data-fill-palette-color="quaternary" id="icon-0"><path d="M34.446 42.001c-1.112 0.159-2.285-0.104-3.258-0.827-1.956-1.452-2.365-4.216-0.913-6.17l13.492-18.168c0.7-0.942 1.745-1.567 2.906-1.736 0.002-0.001 0.006-0.001 0.009-0.001 1.158-0.167 2.333 0.133 3.273 0.835l18.199 13.613c1.95 1.457 2.35 4.222 0.888 6.174-1.459 1.95-4.226 2.346-6.175 0.887l-14.655-10.96L37.36 40.263C36.631 41.246 35.569 41.839 34.446 42.001z" fill="#ff6060" data-fill-palette-color="quaternary"></path><path d="M37.94 85.521c-2.229 0-4.24-1.536-4.75-3.804-0.593-2.626 1.055-5.235 3.682-5.83L55.894 71.6 40.896 56.601c-1.904-1.903-1.904-4.99 0-6.895 1.904-1.904 4.991-1.903 6.895 0l21.25 21.253c1.258 1.255 1.73 3.096 1.238 4.803-0.494 1.704-1.878 3.008-3.61 3.4l-27.649 6.239C38.657 85.483 38.295 85.521 37.94 85.521z" fill="#ff6060" data-fill-palette-color="quaternary"></path><path d="M4.914 98.35c-1.225 0-2.449-0.467-3.385-1.397-1.878-1.871-1.885-4.907-0.015-6.786l31.843-31.978 6.799 6.77L8.314 96.937C7.376 97.878 6.145 98.35 4.914 98.35z" fill="#ff6060" data-fill-palette-color="quaternary"></path><path d="M99.487 45.821c-1.032-2.322-3.749-3.367-6.071-2.336l-16.75 7.44-4.405-9.91-4.357 12.849 2.372 5.336 0.081-0.037c1.134 2.088 3.699 2.99 5.906 2.009l20.889-9.281C99.473 50.859 100.519 48.14 99.487 45.821z" fill="#ff6060" data-fill-palette-color="quaternary"></path><path d="M82.816 13.476c0.135-1.391 0.347-3.886 0.439-6.67 0.203-5.961-7.322-6.302-10.922-3.315-3.791 3.142-10.838 7.478-18.842 4.599 3.779 5.706 13.424 5.419 21.968 3.035 2.521-0.703 3.584 1.367 4.023 2.931-3.64 1.329-6.243 4.811-6.243 8.911 0 5.24 4.251 9.499 9.496 9.499 5.243 0 9.495-4.259 9.495-9.499C92.231 17.749 88.022 13.52 82.816 13.476z" fill="#ff6060" data-fill-palette-color="quaternary"></path></svg></g></svg></g><g></g></svg></g></svg></g></svg></g></svg></g><defs></defs></svg><rect width="342.85155851775386" height="342.85155851775386" fill="none" stroke="none" visibility="hidden"></rect></g></svg></g></svg>